# xmcd CD database file
#
# Track frame offsets:
#	150
#	20525
#	43105
#	59710
#	83917
#	102922
#	118227
#	134287
#	150435
#	167002
#
# Disc length: 2441 seconds
#
# Revision: 2
# Processed by: cddbd v1.5.1PL0 Copyright (c) Steve Scherf et al.
# Submitted via: CDex 1.51
#
DISCID=8309870a
DTITLE=Rocky Hill - Rocky Hill
DYEAR=1988
DGENRE=Boogie Rock
TTITLE0=HPD
TTITLE1=I Won't Be Your Fool
TTITLE2=Bad Year for the Blues
TTITLE3=I'll Be There
TTITLE4=New York Turnaround
TTITLE5=Take My Love
TTITLE6=Hoo Doo Eyes
TTITLE7=Sam Bass
TTITLE8=Walked From Dallas
TTITLE9=Mississippi Delta Blues
EXTD=YEAR: 1988
EXTT0=
EXTT1=
EXTT2=
EXTT3=
EXTT4=
EXTT5=
EXTT6=
EXTT7=
EXTT8=
EXTT9=
PLAYORDER=
